<?xml version="1.0" standalone="no"?>
<!DOCTYPE svg PUBLIC "-//W3C//DTD SVG 20010904//EN"
 "http://www.w3.org/TR/2001/REC-SVG-20010904/DTD/svg10.dtd">
<svg version="1.0" xmlns="http://www.w3.org/2000/svg"
 width="120.000000pt" height="120.000000pt" viewBox="0 0 120.000000 120.000000"
 preserveAspectRatio="xMidYMid meet">
<metadata>
Created by potrace 1.11, written by Peter Selinger 2001-2013
</metadata>
<g transform="translate(0.000000,120.000000) scale(0.100000,-0.100000)"
fill="#000000" stroke="none">
<path d="M627 1174 c-4 -4 -25 -7 -47 -7 -22 0 -40 -3 -40 -7 0 -4 -11 -5 -24
-3 -33 7 -125 -44 -132 -72 -3 -13 -19 -26 -39 -34 -40 -14 -94 -73 -97 -104
0 -12 -2 -71 -4 -132 -3 -136 -1 -125 -18 -125 -8 0 -16 -8 -18 -17 -5 -24 25
-140 46 -178 9 -16 16 -35 16 -40 0 -6 11 -18 24 -28 18 -14 26 -32 31 -70 8
-59 69 -167 133 -233 55 -57 143 -98 212 -98 55 -1 130 25 130 44 0 6 6 10 14
10 7 0 16 8 20 18 3 9 20 35 36 57 17 22 45 69 62 105 30 62 32 70 31 188 -1
67 2 122 6 122 13 0 31 73 22 84 -5 6 -11 52 -15 101 -5 94 -8 114 -20 181 -6
36 -17 53 -67 111 -55 62 -175 127 -221 121 -15 -3 -29 0 -30 4 -2 5 -7 6 -11
2z"/>
</g>
</svg>
